HIERARCHY
ROOT Hips
{
	OFFSET 0.000000 0.000000 0.000000
	CHANNELS 6 Xposition Yposition Zposition Xrotation Yrotation Zrotation
	JOINT LeftUpLeg_virtual
	{
		OFFSET 0.000000 0.000000 0.000000
		CHANNELS 3 Xrotation Yrotation Zrotation
		JOINT LeftUpLeg
		{
			OFFSET 10.205400 -3.823500 0.155100
			CHANNELS 3 Xrotation Yrotation Zrotation
			JOINT LeftLeg
			{
				OFFSET 0.708757 -12.982077 0.567790
				CHANNELS 3 Xrotation Yrotation Zrotation
				JOINT LeftFoot
				{
					OFFSET -0.708756 -10.717838 -2.184338
					CHANNELS 3 Xrotation Yrotation Zrotation
					JOINT LeftToeBase
					{
						OFFSET 0.108149 -7.191104 7.560241
						CHANNELS 3 Xrotation Yrotation Zrotation
						JOINT LeftToe_End
						{
							OFFSET 0.070230 0.081724 4.490308
							CHANNELS 3 Xrotation Yrotation Zrotation
							End Site
							{
								OFFSET 0 0 0
							}
						}
					}
				}
			}
		}
	}
	JOINT RightUpLeg_virtual
	{
		OFFSET 0.000000 0.000000 0.000000
		CHANNELS 3 Xrotation Yrotation Zrotation
		JOINT RightUpLeg
		{
			OFFSET -10.205400 -3.823500 0.005500
			CHANNELS 3 Xrotation Yrotation Zrotation
			JOINT RightLeg
			{
				OFFSET -0.708756 -12.982134 0.610632
				CHANNELS 3 Xrotation Yrotation Zrotation
				JOINT RightFoot
				{
					OFFSET 0.708754 -10.717769 -1.945823
					CHANNELS 3 Xrotation Yrotation Zrotation
					JOINT RightToeBase
					{
						OFFSET -0.108140 -7.191069 7.372968
						CHANNELS 3 Xrotation Yrotation Zrotation
						JOINT RightToe_End
						{
							OFFSET -0.070227 0.081735 4.479403
							CHANNELS 3 Xrotation Yrotation Zrotation
							End Site
							{
								OFFSET 0 0 0
							}
						}
					}
				}
			}
		}
	}
	JOINT Spine_virtual
	{
		OFFSET 0.000000 0.000000 0.000000
		CHANNELS 3 Xrotation Yrotation Zrotation
		JOINT Spine
		{
			OFFSET 0.000000 6.876099 0.125700
			CHANNELS 3 Xrotation Yrotation Zrotation
			JOINT Spine1
			{
				OFFSET 0.000000 5.730043 0.104720
				CHANNELS 3 Xrotation Yrotation Zrotation
				JOINT Spine1_split
				{
					OFFSET 0.000000 5.730043 0.104720
					CHANNELS 3 Xrotation Yrotation Zrotation
					JOINT Spine2
					{
						OFFSET 0.000000 5.730043 0.104720
						CHANNELS 3 Xrotation Yrotation Zrotation
						JOINT Neck_virtual
						{
							OFFSET 0.000000 0.000000 0.000000
							CHANNELS 3 Xrotation Yrotation Zrotation
							JOINT Neck
							{
								OFFSET 0.000000 10.314075 0.188496
								CHANNELS 3 Xrotation Yrotation Zrotation
								JOINT Head
								{
									OFFSET 0.000000 7.643700 -2.377400
									CHANNELS 3 Xrotation Yrotation Zrotation
									JOINT HeadTop_End
									{
										OFFSET 0.000000 43.788605 -13.619600
										CHANNELS 3 Xrotation Yrotation Zrotation
										End Site
										{
											OFFSET 0 0 0
										}
									}
								}
							}
						}
						JOINT LeftShoulder_virtual
						{
							OFFSET 0.000000 0.000000 0.000000
							CHANNELS 3 Xrotation Yrotation Zrotation
							JOINT LeftShoulder
							{
								OFFSET 2.196100 4.412489 0.087492
								CHANNELS 3 Xrotation Yrotation Zrotation
								JOINT LeftShoulder_split
								{
									OFFSET 2.196100 4.412489 0.087492
									CHANNELS 3 Xrotation Yrotation Zrotation
									JOINT LeftArm
									{
										OFFSET 8.771219 -2.981674 -0.026999
										CHANNELS 3 Xrotation Yrotation Zrotation
										JOINT LeftForeArm
										{
											OFFSET 8.512804 0.000000 -0.000000
											CHANNELS 3 Xrotation Yrotation Zrotation
											JOINT LeftHand
											{
												OFFSET 18.484802 0.000000 -0.000000
												CHANNELS 3 Xrotation Yrotation Zrotation
												End Site
												{
													OFFSET 0 0 0
												}
											}
										}
									}
								}
							}
						}
						JOINT RightShoulder_virtual
						{
							OFFSET 0.000000 0.000000 0.000000
							CHANNELS 3 Xrotation Yrotation Zrotation
							JOINT RightShoulder
							{
								OFFSET -2.196100 4.412496 0.070690
								CHANNELS 3 Xrotation Yrotation Zrotation
								JOINT RightShoulder_split
								{
									OFFSET -2.196100 4.412496 0.070690
									CHANNELS 3 Xrotation Yrotation Zrotation
									JOINT RightArm
									{
										OFFSET -8.771282 -2.981682 -0.094208
										CHANNELS 3 Xrotation Yrotation Zrotation
										JOINT RightForeArm
										{
											OFFSET -8.494598 0.000000 0.000000
											CHANNELS 3 Xrotation Yrotation Zrotation
											JOINT RightHand
											{
												OFFSET -18.483803 0.000000 0.000001
												CHANNELS 3 Xrotation Yrotation Zrotation
												End Site
												{
													OFFSET 0 0 0
												}
											}
										}
									}
								}
							}
						}
					}
				}
			}
		}
	}
}
MOTION
Frames: 9
Frame Time: 0.03333333
0.082669 32.444736 0.893177 0.000000 0.000000 0.000000 35.959532 -14.412191 1.180657 -80.633190 1.492779 31.946338 88.407762 -9.085448 -2.356570 10.699778 -15.211323 -0.876243 9.315298 0.172749 -1.288076 0.000000 0.000000 0.000000 33.017100 -20.746886 4.234772 -45.226446 4.158952 4.901392 31.262698 9.433109 -0.902029 1.626402 -5.522415 -15.626513 -9.558622 6.963865 -1.306258 0.000000 0.000000 0.000000 37.058288 -10.547018 2.446912 18.512021 3.811687 -7.910866 -6.196859 1.894646 1.217338 1.799219 0.118657 0.252087 0.000000 0.000000 0.000000 -8.572925 -0.919105 3.640192 -0.292729 7.169252 -2.217550 -21.390682 12.137147 -8.161889 0.000000 0.000000 0.000000 -8.591783 -0.553259 3.114050 1.776173 -4.792569 11.100514 -2.234618 -7.313120 -6.000234 -66.222147 -2.887380 -23.258488 173.817741 -78.467153 174.136656 0.000000 0.000000 0.000000 -8.762672 -1.217317 4.460295 5.121787 16.849375 1.130770 -4.985916 1.117254 2.746502 -15.467438 1.053861 46.675935 2.708075 68.452176 -6.297715 0.000000 0.000000 0.000000 
-0.380351 32.709293 5.603343 0.000000 0.000000 0.000000 32.643950 -14.939248 0.569924 -82.533609 2.733114 31.678820 76.398630 -6.455005 -4.096591 8.915353 -14.678328 -2.010742 7.802139 0.092673 -0.583880 0.000000 0.000000 0.000000 31.603965 -24.642307 5.339325 -38.133271 5.556381 1.816301 31.776741 9.398052 -0.912815 7.050215 -3.953624 -7.627886 -13.554993 6.557194 -1.354189 0.000000 0.000000 0.000000 36.694184 -11.422087 2.278107 18.042208 5.307143 -8.001459 -6.444660 2.309001 1.293820 0.075887 1.141744 -0.379133 0.000000 0.000000 0.000000 -7.898179 -0.544824 3.846741 -0.606093 7.178258 -2.040128 -21.048772 11.555845 -7.718650 0.000000 0.000000 0.000000 -8.186944 -0.014303 3.475884 1.502638 -3.316839 9.986602 0.013572 -6.375896 -5.328985 -63.119486 -0.322073 -22.966726 163.787745 -78.966932 163.911645 0.000000 0.000000 0.000000 -8.887840 -0.779928 4.225351 5.067197 18.364176 0.665868 -5.957046 0.997283 0.037629 -18.762514 7.758025 45.364737 8.489488 74.620513 -12.477061 0.000000 0.000000 0.000000 
-0.810378 33.165962 11.444448 0.000000 0.000000 0.000000 29.705316 -15.050416 1.291816 -79.824332 4.537640 27.684507 62.685379 -1.997470 -4.699918 7.715261 -12.129430 -2.916777 5.737009 -0.215029 -0.107063 0.000000 0.000000 0.000000 30.347422 -24.547568 6.023999 -22.558812 8.307976 -2.142048 28.005611 7.979594 -2.008779 11.967363 -2.653723 0.641097 -12.319856 6.145364 -0.797948 0.000000 0.000000 0.000000 34.376929 -11.281271 2.251999 18.763354 7.791105 -9.127493 -6.068362 3.038346 1.503197 -0.604401 0.624060 0.761163 0.000000 0.000000 0.000000 -6.731176 0.284309 4.157912 -2.075889 6.266081 -1.490469 -20.642529 9.601784 -7.674762 0.000000 0.000000 0.000000 -7.363625 0.957349 3.800586 1.179934 -1.461510 6.980156 1.660212 -4.903334 -3.160220 -57.648743 4.246610 -23.052430 143.383279 -76.460498 143.512943 0.000000 0.000000 0.000000 -8.219019 0.207623 3.930361 5.136968 20.524379 0.638459 -5.837942 -0.259306 -2.235596 -21.885914 14.099705 42.521138 22.012245 78.461976 -26.578167 0.000000 0.000000 0.000000 
-1.051546 33.405350 17.333389 0.000000 0.000000 0.000000 26.872476 -14.157355 2.988317 -73.323194 6.198163 20.637948 51.632661 2.698728 -3.408471 5.406509 -8.079967 -2.762534 6.065742 -0.663861 -0.442062 0.000000 0.000000 0.000000 29.483492 -20.866617 6.324467 -4.053485 10.306892 -6.366628 23.028698 5.273018 -4.174259 14.685182 -2.811143 6.130638 -7.234879 5.925052 0.091397 0.000000 0.000000 0.000000 30.080881 -10.002107 2.466926 21.100596 10.417280 -11.004445 -5.202598 3.706750 1.780113 1.140472 -1.481887 3.205998 0.000000 0.000000 0.000000 -5.441800 1.137288 4.499708 -4.648253 4.819843 -0.576861 -20.256241 7.012285 -7.949194 0.000000 0.000000 0.000000 -6.510321 1.829779 3.889567 1.035212 0.258760 2.572647 3.706344 -3.234080 -0.842907 -50.088397 9.836483 -25.015059 131.459585 -70.005921 131.621734 0.000000 0.000000 0.000000 -6.971250 1.193866 3.597541 4.997384 22.600917 1.929953 -5.364444 -1.822608 -3.958722 -23.046554 17.088628 38.729222 37.195482 79.218453 -42.471394 0.000000 0.000000 0.000000 
-1.176162 33.152050 22.929394 0.000000 0.000000 0.000000 23.467394 -11.726530 5.030341 -65.234761 6.970233 12.017436 44.690682 5.047279 -0.470175 1.268436 -4.504739 -3.968453 7.809801 -0.934987 -1.396946 0.000000 0.000000 0.000000 28.304821 -14.633071 6.217679 9.399387 10.814945 -10.019109 23.971278 2.369246 -6.406048 15.662262 -4.242808 8.253752 -0.815702 6.070837 1.259427 0.000000 0.000000 0.000000 24.612418 -6.861894 3.117583 24.943602 12.173656 -13.013372 -4.037157 3.933081 1.904205 2.659552 -2.902627 4.398177 0.000000 0.000000 0.000000 -4.326941 1.434852 4.704450 -8.042194 3.065011 0.575040 -19.820277 4.123594 -8.357730 0.000000 0.000000 0.000000 -5.844565 2.067263 3.597631 1.052922 0.953961 -2.566508 6.676842 -1.148218 1.191845 -40.456949 14.939753 -29.726243 128.900327 -61.925227 129.006086 0.000000 0.000000 0.000000 -5.575258 1.571874 3.208473 4.433530 23.609900 4.980465 -5.872794 -3.007412 -4.931082 -21.265731 15.316206 35.180201 46.418891 78.739862 -52.421743 0.000000 0.000000 0.000000 
-1.134735 32.286148 27.912144 0.000000 0.000000 0.000000 19.542407 -9.381047 7.093388 -56.217310 6.901211 3.532476 42.144344 4.533716 2.827725 -5.653847 -2.334511 -5.522406 6.220690 -0.958937 -2.081223 0.000000 0.000000 0.000000 26.001567 -6.749157 5.934111 12.488518 10.619903 -12.973635 35.677650 -0.015134 -7.689087 16.016671 -5.463301 8.759915 3.437560 6.228253 2.461312 0.000000 0.000000 0.000000 18.621042 -2.704459 4.906323 29.740532 12.448474 -14.526733 -2.818976 3.330997 1.742247 3.184060 -4.201907 3.593637 0.000000 0.000000 0.000000 -3.601245 0.851757 4.638918 -11.783120 1.238633 1.793370 -18.721209 1.921346 -8.352615 0.000000 0.000000 0.000000 -5.396022 1.378420 2.908876 1.027852 0.321174 -7.448791 9.953909 1.112571 2.330182 -30.761639 17.348570 -36.600095 131.284760 -54.435453 131.119688 0.000000 0.000000 0.000000 -4.524999 0.956616 2.783648 3.521837 22.544810 9.300505 -6.937054 -3.856438 -4.898775 -16.096690 9.146188 33.194330 50.051954 78.809400 -56.555121 0.000000 0.000000 0.000000 
-1.038688 31.008015 32.578159 0.000000 0.000000 0.000000 15.422565 -6.618107 8.732750 -47.612894 6.345797 -3.567448 43.847687 2.492547 5.734565 -14.273012 -0.847374 -7.997341 1.238141 -0.710289 -2.081790 0.000000 0.000000 0.000000 22.655186 1.584823 5.928019 5.579005 10.367339 -15.602891 56.687350 -1.231545 -7.230471 15.724081 -4.690631 10.208383 3.878844 5.508967 3.117081 0.000000 0.000000 0.000000 12.942293 1.014352 6.909089 34.486848 11.282444 -14.690677 -1.964337 1.778778 1.422142 3.005177 -4.501427 1.556850 0.000000 0.000000 0.000000 -3.175775 -0.662590 4.214730 -15.656682 -0.532728 2.835016 -16.549367 0.332607 -7.641171 0.000000 0.000000 0.000000 -5.011820 -0.185481 2.074324 0.841633 -1.427533 -11.169616 11.658605 3.321959 1.522373 -22.847423 16.577171 -43.362166 136.181596 -48.757927 135.533015 0.000000 0.000000 0.000000 -3.893251 -0.718479 2.280792 2.359824 19.206159 13.912861 -8.120375 -3.903997 -4.575286 -8.136843 0.672782 33.942512 49.948337 79.929401 -56.796165 0.000000 0.000000 0.000000 
-0.943461 29.801798 37.319466 0.000000 0.000000 0.000000 11.663804 -3.263559 9.569182 -38.297660 6.201008 -8.324853 46.966242 1.509745 7.659194 -23.644815 0.563218 -9.253645 -3.994920 -0.550876 -2.151745 0.000000 0.000000 0.000000 18.229524 8.469688 6.338431 -9.432894 10.755519 -17.311813 79.201426 -1.314910 -5.939832 14.069291 -2.107042 11.502750 1.528755 3.824892 3.047967 0.000000 0.000000 0.000000 9.274062 3.276738 8.398641 37.855084 9.032639 -12.962558 -1.736038 -0.556403 0.946458 1.690024 -3.795497 0.052142 0.000000 0.000000 0.000000 -2.986978 -2.922500 3.432965 -18.920633 -2.098809 3.452209 -13.160998 -1.134467 -6.139529 0.000000 0.000000 0.000000 -4.601790 -2.369639 1.314944 0.437184 -3.598937 -13.282951 12.014658 4.967654 -0.019754 -18.400197 13.557767 -47.662143 142.443841 -45.488278 141.150845 0.000000 0.000000 0.000000 -3.407302 -3.073633 1.728289 1.403849 13.736053 17.287004 -8.930150 -2.378515 -4.192612 2.398734 -6.835588 36.806834 43.530336 81.941998 -50.563187 0.000000 0.000000 0.000000 
-0.913498 29.024858 42.405483 0.000000 0.000000 0.000000 9.201846 0.671986 9.461924 -26.828964 6.741095 -10.508261 47.582766 3.688890 7.931635 -33.698709 1.393085 -5.854947 -8.462043 -1.160822 -2.182781 0.000000 0.000000 0.000000 13.556008 12.123741 7.023717 -28.269306 11.395909 -17.005668 92.873982 -1.510458 -4.173079 11.781286 0.964396 12.543640 -2.861635 1.504613 1.978736 0.000000 0.000000 0.000000 7.696185 3.769275 8.886102 39.094131 6.129096 -9.593090 -2.111984 -3.267702 0.404356 0.757301 -2.992405 0.159708 0.000000 0.000000 0.000000 -2.889296 -5.458906 2.555287 -21.040131 -3.227549 3.593399 -8.522947 -2.219015 -4.300273 0.000000 0.000000 0.000000 -4.172437 -4.813788 0.790579 0.029520 -5.564730 -13.521218 11.111028 7.024462 -1.507983 -17.612249 9.973523 -48.157417 149.572332 -44.436627 147.437064 0.000000 0.000000 0.000000 -2.881657 -5.601013 1.289277 0.862021 7.008218 18.285776 -8.110579 0.720489 -3.577251 13.958800 -12.164886 40.055060 16.930210 82.842449 -24.096448 0.000000 0.000000 0.000000 
